<svg fill="#fff" id="bc299808-4545-4dfc-887d-9c850ce74aa3" data-name="Layer" xmlns="http://www.w3.org/2000/svg" xmlns:xlink="http://www.w3.org/1999/xlink" viewBox="0 0 257 257">
 <defs>
  <style>
   .b6de1975-6005-4a65-acc6-12e1310e42b5 {
   fill: none;
   }

   .a8fa1fd6-d0e4-4095-ac45-2f09b08f1340 {
   fill: url(#a11a09f9-34d2-464e-9768-3b2222c87ec5);
   }

   .aecff157-20ae-4512-bd25-6b8515c2d84f {
   clip-path: url(#afac39cd-b33a-4b76-92b3-5dd4ae661b0c);
   }

   .a44e068c-ad8d-4f39-8be7-cdad17a19870 {
   fill: #fff;
   }
  </style>
  <linearGradient id="a11a09f9-34d2-464e-9768-3b2222c87ec5" x1="128.5" y1="257" x2="128.5" gradientUnits="userSpaceOnUse">
   <stop offset="0" stop-color="#296aec"/>
   <stop offset="1" stop-color="#48a8f5"/>
  </linearGradient>
  <clipPath id="afac39cd-b33a-4b76-92b3-5dd4ae661b0c">
   <rect id="bf160420-c5aa-4231-8848-a1332256914e" data-name="glasses" class="b6de1975-6005-4a65-acc6-12e1310e42b5" x="69.2" y="93.82" width="118.6" height="40.18"/>
  </clipPath>
 </defs>
 <g id="f24d1c88-dc89-4910-b215-12a5d85f7788" data-name="circle">
  <circle class="a8fa1fd6-d0e4-4095-ac45-2f09b08f1340" cx="128.5" cy="128.5" r="128.5"/>
 </g>
 <g id="baf67b71-dc7a-4078-997d-d07a1222ad0a" data-name="glasses">
  <g class="aecff157-20ae-4512-bd25-6b8515c2d84f">
   <path id="fc95970d-7d62-4bb3-bb95-b73bb927cbd3" data-name="glasses" class="a44e068c-ad8d-4f39-8be7-cdad17a19870" d="M167.21,93.88c-3,0-16.12,0-22.69,1.84-6.26,1.75-15.14,2.25-16,2.3V98s-9.48-.47-16-2.3-19.67-1.85-22.69-1.85-20,2.3-20.59,2.57l.86,8S73,104,73.87,109s4.9,15.37,7.89,18.87,9.61,6.05,16,6.05,10.85-.79,14.8-3.48,7.37-8,9.34-14.27,2-8.79,6.52-8.82v.07c4.52,0,4.61,2.56,6.58,8.81s5.4,11.58,9.34,14.27,8.35,3.49,14.8,3.49,12.95-2.43,16-6,7-13.88,7.9-18.88,3.81-4.67,3.81-4.67l.86-8c-.59-.26-17.57-2.56-20.59-2.56"/>
  </g>
 </g>
 <g id="ef5b23ae-b756-4ed7-8891-3aea1d651fa0" data-name="giume right">
  <path id="ec259093-5893-4fb1-88e5-13f38d086a35" data-name="giume left" class="a44e068c-ad8d-4f39-8be7-cdad17a19870" d="M64.32,68.46C54.16,80.12,60.6,98.37,58.63,111s-9.87,17.68-9.87,17.68,7.93,5.07,9.87,17.68-4.47,30.87,5.69,42.52a20.67,20.67,0,0,0,11,6.58,7.39,7.39,0,0,1,5.76,7.14h0A7.55,7.55,0,0,1,72.69,210c-25.61-2.79-33.37-19.31-32-40.37,1.12-17.43-1.75-26.51-6.91-30-3.49-2.34-5.87-5.9-5.87-10v-2c0-4.08,2.38-7.64,5.87-10,5.16-3.45,8-12.54,6.91-30-1.32-21.06,6.44-37.58,32.05-40.38a7.55,7.55,0,0,1,8.43,7.37h0a7.39,7.39,0,0,1-5.76,7.15A20.65,20.65,0,0,0,64.32,68.46Z"/>
  <path class="a44e068c-ad8d-4f39-8be7-cdad17a19870" d="M192.68,68.46c10.16,11.66,3.72,29.91,5.69,42.52s9.87,17.68,9.87,17.68-7.93,5.07-9.87,17.68,4.47,30.87-5.69,42.52a20.67,20.67,0,0,1-11,6.58,7.39,7.39,0,0,0-5.76,7.14h0a7.55,7.55,0,0,0,8.43,7.37c25.61-2.79,33.37-19.31,32.05-40.37-1.12-17.43,1.75-26.51,6.91-30,3.49-2.34,5.87-5.9,5.87-10v-2c0-4.08-2.38-7.64-5.87-10-5.16-3.45-8-12.54-6.91-30,1.32-21.06-6.44-37.58-32.05-40.38a7.55,7.55,0,0,0-8.43,7.37h0a7.39,7.39,0,0,0,5.76,7.15A20.65,20.65,0,0,1,192.68,68.46Z"/>
 </g>
 <g id="b7fc4a86-52a5-4fa9-96df-9e53dbb4b0b6" data-name="lip">
  <path id="ab5ac46b-ad51-4b55-8380-6f9d92b5e138" data-name="lip" class="a44e068c-ad8d-4f39-8be7-cdad17a19870" d="M128.54,180.72A58.68,58.68,0,0,1,106,176.44a86.56,86.56,0,0,1-21.2-13q-6.06-4.89-7.6-7.75A16.33,16.33,0,0,1,75.68,148c0-2.44.49-3.66,1.48-3.66q.5,0,5.32,3.07A127.36,127.36,0,0,0,94,153.78a85.61,85.61,0,0,0,15.66,5.77,74.15,74.15,0,0,0,37.92,0,87.71,87.71,0,0,0,15.64-5.78q6.6-3.28,11.48-6.36t5.31-3.07c1,0,1.49,1.22,1.49,3.66a17.3,17.3,0,0,1-1.46,7.89q-1.45,2.77-7.57,7.6A104.71,104.71,0,0,1,161.8,171a73.13,73.13,0,0,1-10.46,5.38,57.24,57.24,0,0,1-10.91,3.25A62.58,62.58,0,0,1,128.54,180.72Z"/>
 </g>
</svg>
