
<svg id="bf5e9fb6-8755-4e8c-afa3-93a707041073" data-name="Layer" xmlns="http://www.w3.org/2000/svg" xmlns:xlink="http://www.w3.org/1999/xlink" viewBox="0 0 201.28 162.67">
 <defs>
  <style>
   .b3f7474b-9c63-4ec2-b89b-53f4da05bba3 {
   fill: none;
   }

   .f654a829-6036-4c95-8060-1e90d5ec0d3a {
   clip-path: url(#e40184fb-52f1-46e1-b0e6-247491a0cd2a);
   }

   .e116a040-3967-45cb-a714-90b82b7252a4 {
   fill: url(#acc72b63-9972-4db5-914a-f8d354c85b7f);
   }

   .b6e12d16-63ee-4185-b5c7-87e7a5e0c734 {
   fill: url(#ba324a49-3639-44d4-9f6e-1e3478581707);
   }

   .f61168d3-b039-4cc0-84eb-bb01c8ba7cf6 {
   fill: url(#e5917fa1-bbe1-4c62-8e6c-fcff93f2dfe1);
   }
  </style>
  <clipPath id="e40184fb-52f1-46e1-b0e6-247491a0cd2a" transform="translate(0.14 -23.33)">
   <rect id="a65054cd-418e-4192-94d8-a66c1d2f6326" data-name="glasses" class="b3f7474b-9c63-4ec2-b89b-53f4da05bba3" x="41.2" y="84.41" width="118.6" height="40.18"/>
  </clipPath>
  <linearGradient id="acc72b63-9972-4db5-914a-f8d354c85b7f" x1="100.5" y1="124.59" x2="100.5" y2="84.41" gradientUnits="userSpaceOnUse">
   <stop offset="0" stop-color="#2563eb"/>
   <stop offset="1" stop-color="#48a8f5"/>
  </linearGradient>
  <linearGradient id="ba324a49-3639-44d4-9f6e-1e3478581707" x1="26.49" y1="186" x2="26.49" y2="23.33" xlink:href="#acc72b63-9972-4db5-914a-f8d354c85b7f"/>
  <linearGradient id="e5917fa1-bbe1-4c62-8e6c-fcff93f2dfe1" x1="174.51" y1="186" x2="174.51" y2="23.33" xlink:href="#acc72b63-9972-4db5-914a-f8d354c85b7f"/>
 </defs>
 <g id="f2a1a1cd-aed0-4498-ae38-d8a46da81efa" data-name="glasses">
  <g class="f654a829-6036-4c95-8060-1e90d5ec0d3a">
   <path id="e7b89c78-a05b-42cf-99f9-cbc4748608d0" data-name="glasses" class="e116a040-3967-45cb-a714-90b82b7252a4" d="M139.21,84.47c-3,0-16.12,0-22.69,1.84-6.26,1.76-15.14,2.26-16,2.3v-.06s-9.48-.46-16-2.3-19.67-1.84-22.69-1.84-20,2.3-20.59,2.56l.86,8S45,94.6,45.87,99.6s4.9,15.37,7.89,18.87,9.61,6.06,16.05,6.06,10.85-.79,14.8-3.49S92,113,94,106.77,96,98,100.47,98V98c4.52,0,4.61,2.57,6.58,8.81s5.4,11.58,9.34,14.27,8.35,3.49,14.8,3.49,12.95-2.43,16-6,7-13.88,7.9-18.87S158.94,95,158.94,95l.86-8c-.59-.27-17.57-2.57-20.59-2.57" transform="translate(0.14 -23.33)"/>
  </g>
 </g>
 <g id="f5a103f7-4852-44a2-8fa7-79bc517c63dc" data-name="giume right">
  <path id="f7b18e25-35d3-4e8a-822d-c9e6cb56383f" data-name="giume left" class="b6e12d16-63ee-4185-b5c7-87e7a5e0c734" d="M36.32,44.46C26.16,56.12,32.6,74.37,30.63,87s-9.87,17.68-9.87,17.68,7.93,5.07,9.87,17.68-4.47,30.87,5.69,42.52a20.67,20.67,0,0,0,11,6.58,7.39,7.39,0,0,1,5.76,7.14h0A7.55,7.55,0,0,1,44.69,186c-25.61-2.79-33.37-19.31-32-40.37,1.12-17.43-1.75-26.51-6.91-30-3.49-2.34-5.87-5.9-5.87-10v-2c0-4.08,2.38-7.64,5.87-10,5.16-3.45,8-12.54,6.91-30-1.32-21.06,6.44-37.58,32.05-40.38a7.55,7.55,0,0,1,8.43,7.37h0a7.39,7.39,0,0,1-5.76,7.15A20.65,20.65,0,0,0,36.32,44.46Z" transform="translate(0.14 -23.33)"/>
  <path class="f61168d3-b039-4cc0-84eb-bb01c8ba7cf6" d="M164.68,44.46c10.16,11.66,3.72,29.91,5.69,42.52s9.87,17.68,9.87,17.68-7.93,5.07-9.87,17.68,4.47,30.87-5.69,42.52a20.67,20.67,0,0,1-11,6.58,7.39,7.39,0,0,0-5.76,7.14h0a7.55,7.55,0,0,0,8.43,7.37c25.61-2.79,33.37-19.31,32.05-40.37-1.12-17.43,1.75-26.51,6.91-30,3.49-2.34,5.87-5.9,5.87-10v-2c0-4.08-2.38-7.64-5.87-10-5.16-3.45-8-12.54-6.91-30,1.32-21.06-6.44-37.58-32.05-40.38a7.55,7.55,0,0,0-8.43,7.37h0a7.39,7.39,0,0,0,5.76,7.15A20.65,20.65,0,0,1,164.68,44.46Z" transform="translate(0.14 -23.33)"/>
 </g>
</svg>
